<?xml version="1.0" standalone="no"?>
<!DOCTYPE svg PUBLIC "-//W3C//DTD SVG 20010904//EN"
 "http://www.w3.org/TR/2001/REC-SVG-20010904/DTD/svg10.dtd">
<svg version="1.0" xmlns="http://www.w3.org/2000/svg"
 width="617.000000pt" height="492.000000pt" viewBox="0 0 617.000000 492.000000"
 preserveAspectRatio="xMidYMid meet">

<g transform="translate(0.000000,492.000000) scale(0.100000,-0.100000)"
fill="#000000" stroke="none">
<path d="M2296 3878 c-34 -48 -6 -98 54 -98 46 0 70 21 70 60 0 39 -24 60 -70
60 -29 0 -43 -6 -54 -22z"/>
<path d="M1077 3875 c-72 -25 -117 -87 -117 -160 0 -80 47 -136 155 -185 85
-39 107 -67 92 -121 -14 -54 -113 -64 -198 -20 -51 27 -61 19 -57 -40 3 -40 7
-46 41 -62 91 -45 233 -28 294 35 38 39 53 76 53 128 0 87 -31 125 -153 186
-93 47 -117 76 -97 114 24 44 88 52 159 19 50 -22 61 -16 61 36 0 43 -11 54
-65 70 -60 18 -118 18 -168 0z"/>
<path d="M3745 3867 c-3 -7 -4 -143 -3 -302 l3 -290 140 0 c129 0 144 2 190
25 56 28 90 72 100 130 9 54 -22 123 -69 151 l-36 21 29 27 c33 31 47 82 37
135 -8 42 -60 91 -113 105 -56 16 -272 14 -278 -2z m252 -103 c21 -21 24 -32
19 -62 -8 -52 -36 -72 -102 -72 l-54 0 0 80 0 80 55 0 c47 0 60 -4 82 -26z
m29 -257 c26 -31 30 -62 13 -100 -15 -34 -49 -47 -119 -47 l-60 0 0 91 0 91
71 -4 c63 -3 74 -7 95 -31z"/>
<path d="M5337 3823 c-4 -3 -7 -28 -7 -54 0 -47 -1 -48 -32 -51 -32 -3 -33 -5
-33 -48 0 -43 1 -45 33 -48 l32 -3 0 -130 c0 -154 11 -192 64 -214 41 -17 94
-19 130 -5 23 8 26 15 26 54 l0 44 -38 -5 c-58 -8 -66 9 -71 144 l-3 113 56 0
c50 0 56 2 56 20 0 12 -10 34 -22 50 -16 23 -30 30 -55 30 -31 0 -33 2 -33 38
-1 50 -19 72 -62 72 -19 0 -38 -3 -41 -7z"/>
<path d="M1620 3719 c-13 -6 -39 -21 -57 -34 l-32 -25 -3 27 c-3 26 -6 28 -48
28 l-45 0 -3 -299 c-3 -326 -4 -316 55 -316 61 0 63 3 63 111 l0 100 43 -26
c54 -31 99 -32 157 -2 35 17 51 34 73 76 23 47 27 67 27 141 0 75 -4 94 -27
140 -41 79 -122 111 -203 79z m80 -114 c19 -20 25 -40 28 -88 9 -138 -71 -201
-151 -121 -24 24 -27 34 -27 99 0 71 1 74 35 104 44 38 83 40 115 6z"/>
<path d="M2091 3694 l-40 -35 -3 28 c-3 26 -6 28 -48 28 l-45 0 0 -220 0 -220
34 -3 c19 -2 44 -1 57 2 24 6 24 8 24 145 l0 139 30 32 c27 29 35 32 69 26 44
-7 51 2 51 59 0 65 -68 75 -129 19z"/>
<path d="M2720 3719 c-13 -5 -39 -21 -57 -34 l-32 -25 -3 27 c-3 26 -6 28 -48
28 l-45 0 0 -220 0 -220 34 -3 c19 -2 44 -1 57 2 24 6 24 7 24 152 0 144 0
145 27 170 47 43 101 44 125 1 8 -13 15 -81 18 -172 l5 -150 50 0 50 0 3 170
c2 187 -5 218 -60 258 -31 23 -111 32 -148 16z"/>
<path d="M3136 3720 c-87 -28 -133 -141 -87 -217 19 -31 19 -31 0 -48 -30 -28
-35 -81 -11 -115 21 -27 21 -28 2 -45 -11 -10 -24 -33 -30 -51 -10 -28 -8 -41
7 -72 25 -52 88 -74 198 -69 157 7 242 95 190 197 -23 45 -67 62 -172 68 -95
5 -121 16 -109 47 4 13 15 14 54 9 95 -12 170 29 194 108 9 29 9 47 1 69 -11
28 -10 29 17 29 29 0 39 20 32 68 -3 20 -9 22 -65 22 -34 0 -91 2 -127 5 -36
2 -78 0 -94 -5z m114 -88 c16 -13 22 -29 22 -57 0 -46 -28 -75 -72 -75 -33 0
-70 40 -70 75 0 61 73 95 120 57z m31 -362 c23 -13 25 -52 4 -70 -21 -18 -104
-24 -137 -11 -32 12 -37 44 -11 73 18 20 110 26 144 8z"/>
<path d="M4398 3721 c-59 -19 -97 -52 -124 -107 -24 -49 -26 -62 -22 -142 5
-105 25 -145 90 -182 36 -21 56 -25 123 -25 107 0 161 29 200 110 24 48 27 64
24 137 -5 104 -28 153 -89 187 -47 26 -153 38 -202 22z m123 -91 c32 -18 49
-64 49 -135 0 -102 -30 -145 -102 -145 -69 0 -99 44 -99 147 0 65 18 114 48
132 23 13 79 14 104 1z"/>
<path d="M4918 3721 c-59 -19 -97 -52 -124 -107 -24 -49 -26 -62 -22 -142 5
-105 25 -145 90 -182 36 -21 56 -25 123 -25 107 0 161 29 200 110 24 48 27 64
24 137 -5 104 -28 153 -89 187 -47 26 -153 38 -202 22z m123 -91 c32 -18 49
-64 49 -135 0 -102 -30 -145 -102 -145 -69 0 -99 44 -99 147 0 65 18 114 48
132 23 13 79 14 104 1z"/>
<path d="M2303 3713 c-10 -3 -13 -57 -13 -219 l0 -214 24 -6 c13 -3 38 -4 57
-2 l34 3 3 214 c2 165 -1 216 -10 223 -14 8 -75 10 -95 1z"/>
<path d="M2613 2743 c-10 -4 -13 -77 -13 -319 l0 -314 24 -6 c13 -3 38 -4 57
-2 l34 3 3 314 c2 245 -1 316 -10 323 -14 8 -75 9 -95 1z"/>
<path d="M2846 2708 c-34 -48 -6 -98 54 -98 46 0 70 21 70 60 0 39 -24 60 -70
60 -29 0 -43 -6 -54 -22z"/>
<path d="M4286 2708 c-34 -48 -6 -98 54 -98 46 0 70 21 70 60 0 39 -24 60 -70
60 -29 0 -43 -6 -54 -22z"/>
<path d="M1135 2700 c-22 -35 -204 -585 -197 -592 5 -5 31 -8 58 -6 l49 3 22
65 22 65 117 0 117 0 22 -65 22 -65 56 -3 c41 -2 59 1 62 10 5 12 -172 535
-196 579 -8 16 -21 19 -79 19 -38 0 -72 -4 -75 -10z m115 -236 c22 -65 40
-122 40 -126 0 -4 -38 -8 -85 -8 -47 0 -85 4 -85 9 0 5 18 62 40 127 22 65 40
120 40 123 0 17 16 -22 50 -125z"/>
<path d="M3977 2654 c-4 -4 -7 -29 -7 -55 0 -47 -1 -48 -32 -51 -32 -3 -33 -5
-33 -48 0 -43 1 -45 33 -48 l32 -3 0 -130 c0 -154 11 -192 64 -214 41 -17 94
-19 130 -5 23 8 26 15 26 54 l0 44 -38 -5 c-58 -8 -66 9 -71 144 l-3 113 56 0
56 0 0 50 0 50 -54 0 -55 0 -3 53 -3 52 -45 3 c-25 2 -49 0 -53 -4z"/>
<path d="M1750 2549 c-13 -6 -39 -21 -57 -34 l-32 -25 -3 27 c-3 26 -6 28 -48
28 l-45 0 -3 -299 c-3 -326 -4 -316 55 -316 61 0 63 3 63 111 l0 100 43 -26
c54 -31 99 -32 157 -2 35 17 51 34 73 76 23 47 27 67 27 141 0 75 -4 94 -27
140 -41 79 -122 111 -203 79z m80 -114 c19 -20 25 -40 28 -88 9 -138 -71 -201
-151 -121 -24 24 -27 34 -27 99 0 71 1 74 35 104 44 38 83 40 115 6z"/>
<path d="M2270 2549 c-13 -6 -39 -21 -57 -34 l-32 -25 -3 27 c-3 26 -6 28 -48
28 l-45 0 -3 -299 c-3 -326 -4 -316 55 -316 61 0 63 3 63 111 l0 100 43 -26
c54 -31 99 -32 157 -2 35 17 51 34 73 76 23 47 27 67 27 141 0 75 -4 94 -27
140 -41 79 -122 111 -203 79z m80 -114 c19 -20 25 -40 28 -88 9 -138 -71 -201
-151 -121 -24 24 -27 34 -27 99 0 71 1 74 35 104 44 38 83 40 115 6z"/>
<path d="M3187 2545 c-87 -30 -131 -106 -130 -225 0 -114 32 -176 108 -211 55
-25 121 -24 175 4 44 21 45 23 48 75 2 28 0 52 -3 52 -3 0 -23 -11 -43 -25
-75 -51 -152 -16 -165 75 -19 131 65 208 161 150 18 -11 37 -18 43 -15 5 4 9
26 9 51 0 43 -2 46 -42 64 -50 23 -107 25 -161 5z"/>
<path d="M3558 2546 c-26 -7 -54 -18 -62 -26 -17 -13 -22 -75 -8 -84 5 -3 32
4 61 14 74 29 124 27 150 -6 12 -15 21 -39 21 -54 0 -27 -1 -27 -78 -33 -100
-6 -157 -34 -179 -84 -16 -40 -11 -91 13 -129 18 -26 81 -54 125 -54 34 0 95
23 121 47 17 15 18 14 18 -11 0 -26 2 -27 43 -24 l42 3 0 187 0 187 -29 30
c-48 50 -138 64 -238 37z m162 -290 c0 -26 -7 -41 -31 -60 -56 -47 -123 -26
-117 38 4 38 35 56 101 56 47 0 47 0 47 -34z"/>
<path d="M4648 2551 c-59 -19 -97 -52 -124 -107 -24 -49 -26 -62 -22 -142 5
-105 25 -145 90 -182 36 -21 56 -25 123 -25 107 0 161 29 200 110 24 48 27 64
24 137 -5 104 -28 153 -89 187 -47 26 -153 38 -202 22z m123 -91 c32 -18 49
-64 49 -135 0 -102 -30 -145 -102 -145 -69 0 -99 44 -99 147 0 65 18 114 48
132 23 13 79 14 104 1z"/>
<path d="M5230 2549 c-13 -5 -39 -21 -57 -34 l-32 -25 -3 27 c-3 26 -6 28 -48
28 l-45 0 0 -220 0 -220 34 -3 c19 -2 44 -1 57 2 24 6 24 7 24 152 0 144 0
145 27 170 47 43 101 44 125 1 8 -13 15 -81 18 -172 l5 -150 50 0 50 0 3 170
c2 187 -5 218 -60 258 -31 23 -111 32 -148 16z"/>
<path d="M2853 2543 c-10 -3 -13 -57 -13 -219 l0 -214 24 -6 c13 -3 38 -4 57
-2 l34 3 3 214 c2 165 -1 216 -10 223 -14 8 -75 10 -95 1z"/>
<path d="M4293 2543 c-10 -3 -13 -57 -13 -219 l0 -214 24 -6 c13 -3 38 -4 57
-2 l34 3 3 214 c2 165 -1 216 -10 223 -14 8 -75 10 -95 1z"/>
<path d="M3253 1573 c-10 -4 -13 -77 -13 -319 l0 -314 24 -6 c13 -3 38 -4 57
-2 l34 3 3 314 c2 245 -1 316 -10 323 -14 8 -75 9 -95 1z"/>
<path d="M934 1526 c-3 -8 -4 -29 -2 -48 l3 -33 82 -3 83 -3 2 -252 3 -252 55
0 55 0 3 252 2 252 83 3 82 3 0 45 0 45 -223 3 c-185 2 -223 0 -228 -12z"/>
<path d="M3977 1484 c-4 -4 -7 -29 -7 -55 0 -47 -1 -48 -32 -51 -32 -3 -33 -5
-33 -48 0 -43 1 -45 33 -48 l32 -3 0 -130 c0 -154 11 -192 64 -214 41 -17 94
-19 130 -5 23 8 26 15 26 54 l0 44 -38 -5 c-58 -8 -66 9 -71 144 l-3 113 56 0
56 0 0 50 0 50 -54 0 -55 0 -3 53 -3 52 -45 3 c-25 2 -49 0 -53 -4z"/>
<path d="M1565 1375 c-49 -17 -102 -75 -116 -129 -6 -22 -9 -77 -7 -121 2 -68
7 -88 30 -122 39 -60 85 -78 193 -78 119 1 149 15 153 73 4 47 2 48 -58 27
-56 -20 -130 -19 -159 1 -21 15 -51 69 -51 93 0 7 56 12 143 13 l142 3 3 35
c7 67 -8 120 -43 159 -53 58 -143 76 -230 46z m134 -82 c11 -10 24 -33 27 -50
l7 -33 -92 0 c-50 0 -91 2 -91 5 0 19 31 75 47 84 28 16 78 13 102 -6z"/>
<path d="M2130 1379 c-13 -6 -39 -21 -57 -34 l-32 -25 -3 27 c-3 26 -6 28 -48
28 l-45 0 0 -220 0 -220 34 -3 c19 -2 44 -1 57 2 24 6 24 7 24 155 l0 149 31
26 c37 31 72 33 99 6 18 -18 20 -33 20 -175 0 -154 0 -155 24 -161 13 -3 38
-4 57 -2 l34 3 3 147 3 146 35 31 c41 36 73 39 100 10 16 -18 20 -42 24 -178
l5 -156 50 0 50 0 3 169 c2 153 1 173 -18 211 -40 83 -139 98 -227 35 l-44
-32 -16 22 c-30 42 -107 61 -163 39z"/>
<path d="M2910 1379 c-13 -6 -39 -21 -57 -34 l-32 -25 -3 27 c-3 26 -6 28 -48
28 l-45 0 -3 -299 c-3 -326 -4 -316 55 -316 61 0 63 3 63 111 l0 100 43 -26
c54 -31 99 -32 157 -2 35 17 51 34 73 76 23 47 27 67 27 141 0 75 -4 94 -27
140 -41 79 -122 111 -203 79z m80 -114 c19 -20 25 -40 28 -88 9 -138 -71 -201
-151 -121 -24 24 -27 34 -27 99 0 71 1 74 35 104 44 38 83 40 115 6z"/>
<path d="M3558 1376 c-26 -7 -54 -18 -62 -26 -17 -13 -22 -75 -8 -84 5 -3 32
4 61 14 74 29 124 27 150 -6 12 -15 21 -39 21 -54 0 -27 -1 -27 -78 -33 -100
-6 -157 -34 -179 -84 -16 -40 -11 -91 13 -129 18 -26 81 -54 125 -54 34 0 95
23 121 47 17 15 18 14 18 -11 0 -26 2 -27 43 -24 l42 3 0 187 0 187 -29 30
c-48 50 -138 64 -238 37z m162 -290 c0 -26 -7 -41 -31 -60 -56 -47 -123 -26
-117 38 4 38 35 56 101 56 47 0 47 0 47 -34z"/>
<path d="M4385 1375 c-49 -17 -102 -75 -116 -129 -6 -22 -9 -77 -7 -121 2 -68
7 -88 30 -122 39 -60 85 -78 193 -78 119 1 149 15 153 73 4 47 2 48 -58 27
-56 -20 -130 -19 -159 1 -21 15 -51 69 -51 93 0 7 56 12 143 13 l142 3 3 35
c7 67 -8 120 -43 159 -53 58 -143 76 -230 46z m134 -82 c11 -10 24 -33 27 -50
l7 -33 -92 0 c-50 0 -91 2 -91 5 0 19 31 75 47 84 28 16 78 13 102 -6z"/>
</g>
</svg>
