<svg xmlns="http://www.w3.org/2000/svg" xmlns:xlink="http://www.w3.org/1999/xlink" id="Layer_1" x="0" y="0" version="1.1" viewBox="0 0 512 512" xml:space="preserve" style="enable-background:new 0 0 512 512"><g><polygon style="fill:#f6e27d" points="215.349 263.758 170.667 219.098 170.667 308.44"/><path style="fill:#f6e27d" d="M488.727,372.355c-5.956,0-11.913-2.273-16.455-6.816l-6.817-6.817L364.615,257.883H287.05 l-22.319,22.319c-0.002,0.003-0.005,0.005-0.006,0.006c-0.002,0.003-0.005,0.005-0.006,0.006l-94.053,94.051v44.625v23.273 c0,8.012-1.693,15.874-4.852,23.273h322.912c12.853,0,23.273-10.42,23.273-23.273v-93.071c-0.002,5.952-2.275,11.906-6.817,16.449 C500.64,370.082,494.684,372.355,488.727,372.355z"/><path style="fill:#f6e27d" d="M465.455,292.897l23.273,23.273l16.455,16.454c4.543,4.543,6.816,10.498,6.817,16.449v-91.19h-81.56 L465.455,292.897z"/></g><g><path style="fill:#acabb1" d="M488.727,316.17l-23.273-23.273l-35.015-35.015h-65.825l100.839,100.839l6.817,6.819 c4.544,4.543,10.501,6.816,16.455,6.816c5.956,0,11.913-2.273,16.455-6.816c4.543-4.543,6.816-10.498,6.817-16.449v-0.019 c-0.002-5.952-2.275-11.906-6.817-16.449L488.727,316.17z"/><polygon style="fill:#acabb1" points="264.726 280.208 264.732 280.201 287.05 257.883 209.47 257.883 215.349 263.758 170.667 308.44 170.667 374.265 264.72 280.212"/></g><g><path style="fill:#f5dc60" d="M432.541,46.568l23.274-23.273l16.457-16.457c4.544-4.543,10.501-6.816,16.455-6.816H85.333 c21.578,0,42.122,6.495,57.847,18.288c2.107,1.579,4.101,3.247,5.986,4.985c7.371,6.791,12.997,14.718,16.648,23.273 c3.159,7.399,4.852,15.261,4.852,23.273v83.445l77.594,77.56L432.541,46.568z"/><polygon style="fill:#f5dc60" points="287.05 257.883 364.615 257.883 325.834 219.101"/><path style="fill:#f5dc60" d="M505.183,39.752l-16.455,16.455L465.455,79.48L358.746,186.189l71.694,71.694H512V23.305 C511.998,29.255,509.725,35.209,505.183,39.752z"/></g><path style="fill:#898890" d="M325.834,219.101l38.782,38.782h65.825l-71.694-71.694L465.455,79.48l23.273-23.273l16.455-16.454	c4.543-4.543,6.816-10.498,6.817-16.449v-0.009c0-0.776-0.042-1.542-0.116-2.299c-0.033-0.327-0.093-0.649-0.141-0.974	c-0.059-0.427-0.11-0.858-0.194-1.277c-0.076-0.375-0.18-0.746-0.275-1.122c-0.092-0.363-0.171-0.731-0.279-1.088	c-0.11-0.363-0.25-0.721-0.379-1.081c-0.129-0.357-0.247-0.718-0.391-1.067c-0.138-0.334-0.303-0.658-0.458-0.988	c-0.171-0.36-0.332-0.725-0.52-1.075c-0.168-0.312-0.361-0.613-0.543-0.918c-0.206-0.346-0.403-0.7-0.627-1.033	c-0.225-0.335-0.478-0.655-0.721-0.981c-0.211-0.284-0.41-0.574-0.633-0.847c-0.464-0.563-0.957-1.112-1.482-1.64	c-0.022-0.022-0.037-0.045-0.059-0.067c-0.026-0.025-0.053-0.045-0.078-0.07c-0.524-0.52-1.067-1.008-1.628-1.469	c-0.275-0.225-0.569-0.427-0.855-0.639c-0.323-0.242-0.639-0.492-0.973-0.715c-0.334-0.225-0.687-0.42-1.033-0.627	c-0.306-0.182-0.608-0.375-0.92-0.545c-0.348-0.186-0.711-0.348-1.069-0.514c-0.332-0.158-0.659-0.324-0.996-0.464	c-0.344-0.143-0.701-0.258-1.053-0.385c-0.365-0.13-0.728-0.273-1.097-0.385c-0.349-0.104-0.709-0.182-1.064-0.273	c-0.382-0.096-0.76-0.203-1.145-0.279c-0.406-0.082-0.821-0.13-1.233-0.188c-0.34-0.048-0.68-0.115-1.018-0.149	c-0.757-0.073-1.521-0.115-2.296-0.115c-5.956,0-11.913,2.273-16.455,6.816l-16.457,16.457l-23.274,23.273l-184.277,184.28	l-77.594-77.56v65.812l38.803,38.785h77.58L325.834,219.101z"/><path style="fill:#ee8700" d="M165.815,46.568c-3.652-8.555-9.277-16.482-16.648-23.273c-1.885-1.738-3.879-3.406-5.986-4.985	C127.455,6.516,106.912,0.023,85.333,0.023c-21.58,0-42.124,6.495-57.847,18.288C10.018,31.41,0,50.192,0,69.841	c0,17.999,8.431,35.26,23.273,48.106c1.358,1.176,2.749,2.327,4.214,3.424c5.765,4.324,12.184,7.928,19.059,10.769	c11.874,4.906,25.121,7.519,38.788,7.519c5.779,0,11.477-0.481,17.034-1.389c7.587-1.241,14.898-3.3,21.754-6.13	c6.876-2.841,13.293-6.445,19.059-10.769c1.463-1.097,2.856-2.248,4.214-3.424c14.842-12.845,23.273-30.106,23.273-48.106	C170.667,61.829,168.974,53.966,165.815,46.568z"/><path style="fill:#ffb655" d="M147.394,117.947c-1.358,1.176-2.751,2.327-4.214,3.424c-5.765,4.324-12.184,7.928-19.059,10.769	c-6.855,2.83-14.167,4.889-21.754,6.13c-5.558,0.908-11.256,1.389-17.034,1.389c-13.667,0-26.914-2.613-38.788-7.519	c-6.876-2.841-13.293-6.445-19.059-10.769c-1.465-1.097-2.856-2.25-4.214-3.424C8.431,105.1,0,87.84,0,69.841v372.322	c0,19.648,10.018,38.431,27.487,51.53c15.723,11.793,36.267,18.286,57.847,18.286c21.578,0,42.122-6.495,57.847-18.288	c10.344-7.758,18.05-17.515,22.635-28.258c3.159-7.399,4.852-15.261,4.852-23.273v-23.273v-44.625v-65.825v-89.342v-65.811V69.841	C170.667,87.84,162.236,105.1,147.394,117.947z"/><path style="fill:#cc7400" d="M0,69.841c0,17.999,8.431,35.26,23.273,48.106c1.358,1.176,2.749,2.327,4.214,3.424	c5.765,4.324,12.184,7.928,19.059,10.769c11.874,4.906,25.121,7.519,38.788,7.519V0.023c-21.58,0-42.124,6.495-57.847,18.288	C10.018,31.41,0,50.192,0,69.841z"/><path style="fill:#ff9811" d="M46.545,132.14c-6.876-2.841-13.293-6.445-19.059-10.769c-1.465-1.097-2.856-2.25-4.214-3.424	C8.431,105.1,0,87.84,0,69.841v372.322c0,19.648,10.018,38.431,27.487,51.53c15.723,11.793,36.267,18.286,57.847,18.286v-372.32	C71.666,139.659,58.419,137.046,46.545,132.14z"/></svg>